<?xml version="1.0" encoding="UTF-8" standalone="no"?>
<svg xmlns="http://www.w3.org/2000/svg" viewBox="0 0 400 400" height="400" width="400">
<path d="M0 0H400V400H0z" fill="white"/>
<path d="M254 242C277 232 303 222 317 199 324 187 319 172 309 163 293 149 283 129 280 108 276 91 280 74 278 57 275 43 269 32 264 19 260 38 250 56 248 76 246 95 232 111 230 131 228 157 218 181 210 206 207 219 205 232 200 244 195 262 195 280 195 298M145 175C155 177 163 170 171 167 187 166 201 158 216 154 235 150 252 141 271 139 282 137 293 136 302 130 310 123 321 125 330 121 345 115 360 112 374 105" fill="none" stroke="#f071da" stroke-width="13" stroke-linecap="round" stroke-linejoin="round"/>
<path d="M134 251C149 250 163 254 176 262 188 268 201 276 206 289 211 300 214 311 215 323 214 337 207 351 194 357 184 362 174 366 165 370 151 375 137 378 123 380 111 380 99 380 88 375 76 369 65 361 58 349 54 342 53 334 53 326 52 315 52 303 56 293 59 285 62 278 68 273 75 265 84 258 95 256 108 252 121 250 134 251 z" fill="#f071da"/>
</svg>
